<?xml version="1.0" encoding="iso-8859-1"?>
<!-- Generator: Adobe Illustrator 19.0.0, SVG Export Plug-In . SVG Version: 6.00 Build 0)  -->
<svg version="1.1" id="Layer_1" xmlns="http://www.w3.org/2000/svg" xmlns:xlink="http://www.w3.org/1999/xlink" x="0px" y="0px"
	 viewBox="0 0 412.96 412.96" style="enable-background:new 0 0 412.96 412.96;" xml:space="preserve">
<g>
	<path style="fill:#B7ED62;" d="M412.96,266.955c-85.43,85.43-210.61,106.86-315.98,64.3c-14.01-5.66-27.68-12.45-40.86-20.38
		c-20-12.03-38.87-26.67-56.12-43.92l206.48-206.48L412.96,266.955"/>
	<path style="fill:#F75959;" d="M372.39,226.385c-42.46,42.47-101.12,68.73-165.91,68.73s-123.45-26.26-165.91-68.73l165.91-165.91
		L372.39,226.385"/>
	<circle style="fill:#666666;" cx="189.98" cy="245.835" r="12.5"/>
	<circle style="fill:#666666;" cx="264.48" cy="217.335" r="12.5"/>
	<path style="fill:#D0F398;" d="M206.48,60.475L0,266.955c17.25,17.25,36.12,31.891,56.12,43.92l29.551-49.212
		c-16.454-9.904-31.599-21.772-45.101-35.278L206.48,60.475"/>
	<path style="fill:#FA9292;" d="M206.48,60.475L40.57,226.385c13.502,13.505,28.646,25.374,45.101,35.278L206.48,60.475"/>
	<circle style="fill:#666666;" cx="191.98" cy="175.835" r="12.5"/>
</g>
<g>
</g>
<g>
</g>
<g>
</g>
<g>
</g>
<g>
</g>
<g>
</g>
<g>
</g>
<g>
</g>
<g>
</g>
<g>
</g>
<g>
</g>
<g>
</g>
<g>
</g>
<g>
</g>
<g>
</g>
</svg>
