<svg xmlns="http://www.w3.org/2000/svg" viewBox="0 0 845 845"><defs><style>.cls-1{fill:#333;}.cls-2,.cls-3{fill:#fff;}.cls-3{font-size:500px;font-family:GiddyupStd, Giddyup Std;}</style></defs><title>logo</title><g id="Layer_2" data-name="Layer 2"><g id="Layer_1-2" data-name="Layer 1"><path class="cls-1" d="M422.5,843A420.61,420.61,0,0,1,258.82,35,420.61,420.61,0,0,1,586.18,810,417.86,417.86,0,0,1,422.5,843Z"/><path d="M422.5,4A418.61,418.61,0,0,1,585.4,808.11,418.61,418.61,0,0,1,259.6,36.89,415.88,415.88,0,0,1,422.5,4m0-4C189.16,0,0,189.16,0,422.5S189.16,845,422.5,845,845,655.84,845,422.5,655.84,0,422.5,0Z"/><path class="cls-2" d="M304.77,141.85c-5.81.4-10.28-6.66-9.88-14.83.81-16.35,13.84-16.39,20.57-16.06,29.35,1.45,45,37.07,42.86,79.31-2.77,55.88-32.27,115.89-78.38,170.3,25.31,14.92,60.45,35.79,76.51,42.73,6.09-35.22,12.72-71.78,20.87-109.63,10.68-50,15.23-73.7,15.74-83.92.44-8.86.3-15.7-.5-19.15a27.14,27.14,0,0,1-.66-6.18c.41-8.18,5.55-14.75,11.33-14.47,13,.64,11.81,24.49,11.17,37.44-.71,14.31-6.53,44.08-9,55.57-3.8,18.25-23.82,120.41-28.57,148.18a87.6,87.6,0,0,0,28.63,6.2c19.25,1,29-10.86,37.79-22.72,2.09-3.31,15.66-14.24,19-14.07,5.29.26-.78,15.66-1.22,24.52-.51,10.22-17.56,42.85-57,40.89a111.08,111.08,0,0,1-32.48-6.39c-4.48,22.32-3.21,55.83-4.32,78.31-.54,10.9-1.86,18.77-2.13,24.14a102.2,102.2,0,0,0,.26,13.48c5.43,126.65-8.34,126.2-14.6,125.89-11.07-.55-6.08-139.75-4.62-169.05,1.28-25.89.47-56.25,5.05-80.62-20.77-9.23-41.85-21.88-62-33.81-9.35-5.93-18.26-11.15-27.65-16.4C239.11,405.69,215.59,423,191,421.75c-21.17-1-34.21-20.14-32.9-46.72,1.62-32.71,22.3-50.81,46.35-49.62,19.25,1,36.58,11.38,54.8,23.21C301.68,301.55,334.1,241,336.67,189.2c.88-17.72-2.52-46.58-22.66-48.94Zm-110.89,252c14,.69,29.31-7.43,47.13-26.35-13.55-8.87-24.89-13.53-36.92-14.13-14.92-.74-23.26,11.83-23.8,22.73C179.71,387.72,187.14,393.55,193.87,393.89Z"/><text class="cls-3" transform="translate(385.34 647.22)">S</text></g></g></svg>