<svg xmlns="http://www.w3.org/2000/svg" viewBox="0 0 845 845"><defs><style>.cls-1{fill:#333;}.cls-2{fill:#fff;}</style></defs><title>logo</title><g id="Layer_2" data-name="Layer 2"><g id="Layer_1-2" data-name="Layer 1"><path class="cls-1" d="M422.5,843A420.61,420.61,0,0,1,258.82,35,420.61,420.61,0,0,1,586.18,810,417.86,417.86,0,0,1,422.5,843Z"/><path d="M422.5,4A418.61,418.61,0,0,1,585.4,808.11,418.61,418.61,0,0,1,259.6,36.89,415.88,415.88,0,0,1,422.5,4m0-4C189.16,0,0,189.16,0,422.5S189.16,845,422.5,845,845,655.84,845,422.5,655.84,0,422.5,0Z"/><path class="cls-2" d="M413.06,542.62H202V491.86L433.69,117h42.21v364.9H590.5l-51.75,60.75H475.91V686.5H413.06ZM245.8,481.87H413.06V207.69Z"/><path class="cls-2" d="M678.55,691a74.52,74.52,0,0,0,25.71-4.28,67.43,67.43,0,0,0,20.15-11.27,51.91,51.91,0,0,0,13.17-16.19,40.34,40.34,0,0,0,4.76-18.73q0-15.55-7.78-27.14a84.17,84.17,0,0,0-20.63-20.95,172.91,172.91,0,0,0-29.36-17q-16.51-7.62-33.48-15.71t-33.48-17.46a148.94,148.94,0,0,1-29.36-21.58,97.07,97.07,0,0,1-20.63-28.25q-7.78-16-7.78-37.93a83.92,83.92,0,0,1,8.73-38.09,92.14,92.14,0,0,1,24.12-30.15q15.39-12.69,36.82-19.84a147.23,147.23,0,0,1,46.81-7.14,201.52,201.52,0,0,1,31.74,2.38,104.33,104.33,0,0,1,29,9.2,127.52,127.52,0,0,1,28.25,19.2q14.12,12.38,29.36,32.37L770,444.76Q750.59,413,726.63,397.47t-51.26-15.55A90.7,90.7,0,0,0,649,385.57a69.17,69.17,0,0,0-20.63,9.84,46.51,46.51,0,0,0-13.33,14.44,34.41,34.41,0,0,0-4.76,17.46A43.21,43.21,0,0,0,618.88,454a88.77,88.77,0,0,0,22.53,20.63,211.25,211.25,0,0,0,31.74,17q17.77,7.78,36.5,15.87t36.5,17.3a159.34,159.34,0,0,1,31.74,21.42,100,100,0,0,1,22.53,28.25q8.57,16,8.57,37.29a101.62,101.62,0,0,1-8.09,40.47,88.23,88.23,0,0,1-24.28,32.69q-16.19,13.8-40.78,21.74t-57.29,7.93a204.43,204.43,0,0,1-30.63-2.38A131.15,131.15,0,0,1,616.18,703a146.7,146.7,0,0,1-32.06-19.2q-16-12.38-31.26-32.37l27.61-25.07A284.28,284.28,0,0,0,604.28,656a134.27,134.27,0,0,0,23,20,86.41,86.41,0,0,0,24.12,11.43A96.66,96.66,0,0,0,678.55,691Z"/></g></g></svg>