<?xml version="1.0" encoding="utf-8"?>
<!-- Generator: Adobe Illustrator 21.0.2, SVG Export Plug-In . SVG Version: 6.00 Build 0)  -->
<svg version="1.1" id="Layer_1" xmlns="http://www.w3.org/2000/svg" xmlns:xlink="http://www.w3.org/1999/xlink" x="0px" y="0px"
	 viewBox="0 0 530 496" style="enable-background:new 0 0 530 496;" xml:space="preserve">
<style type="text/css">
	.st0{fill:#FF0000;}
	.st1{opacity:0.41;fill:#FF0000;enable-background:new    ;}
	.st2{fill:#009245;}
	.st3{fill:#FF7BAC;}
	.st4{fill:none;}
	.st5{fill:#FFFFFF;}
	.st6{font-family:'ShreeDev0714';}
	.st7{font-size:18px;}
</style>
<g>
	<g>
		<g>
			<path class="st0" d="M255.1,205.4c9.4-16.6,19.7-32.5,31.9-47.2c12.1-14.7,25.6-27.8,39.7-40.5c0.9-0.8-0.4-2.1-1.3-1.3
				c-29.3,23.5-54.5,54.8-71.2,88.5C253.9,205.4,254.7,205.9,255.1,205.4L255.1,205.4z"/>
		</g>
	</g>
	<rect x="336" y="78" class="st1" width="85" height="32"/>
	
		<image style="overflow:visible;enable-background:new    ;" width="563" height="563" xlink:href="D57E76797A2E8558.png"  transform="matrix(0.3417 0 0 0.3417 167.3203 180.3203)">
	</image>
	<g>
		<g>
			<path class="st2" d="M385.7,223.8c23.2-0.5,42.4,17.9,55.8,35c6.5,8.3,12.1,17.4,16.6,27c2.5,5.2,4.6,10.5,6.4,16
				c1.5,4.5,2,10.1,4.4,14.1c0.7,1.2,2.3,0.6,2.4-0.7c0.5-5.1-2.4-11.1-4.1-15.9c-1.9-5.2-4-10.2-6.5-15.1
				c-5-10.2-11.3-19.7-18.6-28.4c-13.9-16.6-33.5-34.1-56.6-33.2C385,222.7,385,223.9,385.7,223.8L385.7,223.8z"/>
		</g>
	</g>
	<g>
		<g>
			<path class="st3" d="M270.8,204.9c-15.3-43.4-49.5-87.7-98.4-93.3c-0.9-0.1-1.1,1.3-0.2,1.6c21.6,5.9,41.1,14.8,57.5,30.3
				c18,16.9,30.8,39,39.9,61.8C269.9,205.9,271.1,205.6,270.8,204.9L270.8,204.9z"/>
		</g>
	</g>
	<rect x="334" y="86.7" class="st4" width="87" height="18.3"/>
	<text transform="matrix(1 0 0 1 342.6748 99.9424)" class="st5 st6 st7">HEADER</text>
	<g>
		<g>
			<path class="st0" d="M386.3,69c6.3-6.3,12.4-12.6,19.3-18.2c7.3-5.9,15-10.9,22.8-16.1c1-0.7,0.1-2.2-0.9-1.6
				c-15.8,8.2-30.9,21.2-41.9,35.2C385.1,68.8,385.8,69.5,386.3,69L386.3,69z"/>
		</g>
	</g>
	<rect x="438" y="13" class="st1" width="85" height="32"/>
	<rect x="89" y="96" class="st3" width="99" height="32"/>
	<rect x="95" y="104.7" class="st4" width="87" height="18.3"/>
	<text transform="matrix(1 0 0 1 114.1611 117.9424)" class="st5 st6 st7">BODY</text>
	<rect x="11" y="11" class="st3" width="99" height="32"/>
	<rect x="17" y="19.7" class="st4" width="87" height="18.3"/>
	<text transform="matrix(1 0 0 1 20.6768 32.9424)" class="st5 st6 st7">Silver Cell</text>
	<g>
		<g>
			<path class="st3" d="M114.9,38.7c10.5,3.9,20.9,9.4,29.2,17c7.7,7.1,12.1,15.7,17.4,24.5c0.5,0.8,1.6,0.3,1.5-0.6
				c-2.1-10.3-9.8-19.6-17.4-26.3c-8.8-7.7-19-12.7-30.3-15.8C114.5,37.4,114.2,38.5,114.9,38.7L114.9,38.7z"/>
		</g>
	</g>
	<g>
		<g>
			<path class="st3" d="M115.9,118.3c-44,23.7-88.4,68.3-79.2,123c0.1,0.9,1.6,0.7,1.6-0.2c-0.6-23.9,3.9-46.3,17-66.7
				c14.9-23.4,37.6-41.1,61.3-55C117.2,119,116.6,118,115.9,118.3L115.9,118.3z"/>
		</g>
	</g>
	<rect x="26" y="254" class="st3" width="110" height="110"/>
	<rect x="34" y="269.7" class="st4" width="98" height="90.3"/>
	<text transform="matrix(1 0 0 1 45.7368 282.9424)" class="st5 st6 st7">PC, MAC</text>
	<text transform="matrix(1 0 0 1 39.7368 304.5424)" class="st5 st6 st7">PLAYSTA</text>
	<text transform="matrix(1 0 0 1 116.3368 304.5424)" class="st5 st6 st7">-</text>
	<text transform="matrix(1 0 0 1 62.9368 326.1424)" class="st5 st6 st7">TION</text>
	<text transform="matrix(1 0 0 1 59.9368 347.7424)" class="st5 st6 st7">XBOX</text>
	<rect x="436" y="21.7" class="st4" width="87" height="18.3"/>
	<text transform="matrix(1 0 0 1 461.791 34.9424)" class="st5 st6 st7">logo</text>
	<rect x="428" y="332" class="st2" width="85" height="32"/>
	<rect x="427" y="340.7" class="st4" width="87" height="18.3"/>
	<text transform="matrix(1 0 0 1 436.1328 353.9424)" class="st5 st6 st7">FOOTER</text>
	<rect x="336" y="78" class="st1" width="85" height="32"/>
	<rect x="334" y="86.7" class="st4" width="87" height="18.3"/>
	<text transform="matrix(1 0 0 1 342.6748 99.9424)" class="st5 st6 st7">HEADER</text>
	<rect x="336" y="78" class="st4" width="85" height="32"/>
	<rect x="334" y="86.7" class="st4" width="87" height="18.3"/>
	<text transform="matrix(1 0 0 1 342.6748 99.9424)" class="st5 st6 st7">HEADER</text>
	<g>
		<g>
			<path class="st2" d="M470.8,380.9c-2.7,22.4-22.8,38.5-41,49.3c-9.4,5.6-19.5,10.1-30,13.4c-5,1.6-10.2,2.9-15.3,3.9
				c-5.2,1-11.5,0.7-16.4,2.7c-1.1,0.5-1.4,2.2,0,2.5c4.8,1.1,10.9-0.7,15.7-1.6c6-1.2,11.9-2.8,17.7-4.7
				c11.4-3.9,22.4-9.2,32.5-15.7c17.5-11.4,35.9-27.7,38.1-49.7C472.1,380.1,470.9,380.2,470.8,380.9L470.8,380.9z"/>
		</g>
	</g>
	<rect x="244" y="405" class="st2" width="118" height="78"/>
	<rect x="229" y="416.7" class="st4" width="146" height="90.3"/>
	<text transform="matrix(1 0 0 1 249.1748 429.9429)" class="st5 st6 st7">ORDER/BUY </text>
	<text transform="matrix(1 0 0 1 280.5748 451.5429)" class="st5 st6 st7">NOW</text>
	<text transform="matrix(1 0 0 1 255.1748 473.1429)" class="st5 st6 st7">RETAILORS</text>
	<rect x="26" y="422" class="st2" width="158" height="35"/>
	<rect x="31.5" y="434.2" class="st4" width="146" height="90.3"/>
	<text transform="matrix(1 0 0 1 47.728 447.4429)" class="st5 st6 st7">CONTACT US</text>
	<g>
		<g>
			<path class="st2" d="M236.8,440c-5.6,6.6-15.5,6.8-23.5,6.1c-4.5-0.4-9-1.4-13.3-2.8c-3.9-1.3-7.6-3.7-11.6-4.5
				c-1.2-0.2-2.3,1.2-1.3,2.2c3.5,3.3,9.2,4.7,13.8,5.8c4.9,1.2,10,1.9,15,1.9c7.9,0,16.8-1.2,21.9-7.9
				C238.2,440.2,237.2,439.5,236.8,440L236.8,440z"/>
		</g>
	</g>
</g>
</svg>
