<svg xmlns="http://www.w3.org/2000/svg" xmlns:xlink="http://www.w3.org/1999/xlink" viewBox="0 0 381.26 474.49"><defs><style>.cls-1{fill:url(#linear-gradient);}.cls-2{fill:url(#linear-gradient-2);}.cls-3{fill:url(#linear-gradient-3);}.cls-4{fill:url(#linear-gradient-4);}.cls-5{fill:#272931;}.cls-6{fill:url(#linear-gradient-5);}.cls-7{fill:url(#linear-gradient-6);}.cls-8{fill:url(#linear-gradient-7);}.cls-9{fill:url(#linear-gradient-8);}.cls-10{fill:url(#linear-gradient-9);}.cls-11{fill:url(#linear-gradient-10);}.cls-12{fill:url(#linear-gradient-11);}.cls-13{fill:#fff;}.cls-14{fill:#cacaca;}.cls-15{fill:#444b55;}.cls-16{fill:#dcdde0;}.cls-17{fill:#0d0f12;}.cls-18{fill:#a6aeba;}.cls-19{fill:url(#linear-gradient-12);}</style><linearGradient id="linear-gradient" x1="108.82" y1="-746.58" x2="108.82" y2="-300.74" gradientTransform="matrix(1, 0, 0, -1, 0, -300)" gradientUnits="userSpaceOnUse"><stop offset="0"/><stop offset="0.76"/><stop offset="0.89"/><stop offset="0.9" stop-color="#070709"/><stop offset="0.96" stop-color="#202129"/><stop offset="1" stop-color="#2a2b35"/></linearGradient><linearGradient id="linear-gradient-2" x1="127.83" y1="-488.62" x2="353.05" y2="-488.62" gradientTransform="matrix(1, 0, 0, -1, 0, -300)" gradientUnits="userSpaceOnUse"><stop offset="0" stop-color="#002ccd"/><stop offset="0.12" stop-color="#012bc8"/><stop offset="0.28" stop-color="#032ab9"/><stop offset="0.44" stop-color="#0627a0"/><stop offset="0.62" stop-color="#0a247d"/><stop offset="0.81" stop-color="#102051"/><stop offset="1" stop-color="#171a1b"/><stop offset="1" stop-color="#171a1a"/></linearGradient><linearGradient id="linear-gradient-3" x1="342.84" y1="-328.32" x2="122.73" y2="-485.21" gradientTransform="matrix(1, 0, 0, -1, 0, -300)" gradientUnits="userSpaceOnUse"><stop offset="0" stop-color="#171a1a"/><stop offset="0.42" stop-color="#171a1a"/><stop offset="0.44" stop-color="#1f2229"/><stop offset="1" stop-color="#39444d"/></linearGradient><linearGradient id="linear-gradient-4" x1="134.55" y1="-485.94" x2="292.03" y2="-690.25" gradientTransform="matrix(1, 0, 0, -1, 0, -300)" gradientUnits="userSpaceOnUse"><stop offset="0" stop-color="#686c77"/><stop offset="0.25" stop-color="#4d5159"/><stop offset="0.55" stop-color="#33383d"/><stop offset="0.81" stop-color="#24282c"/><stop offset="1" stop-color="#1e2326"/></linearGradient><linearGradient id="linear-gradient-5" x1="29.1" y1="-385.81" x2="69.18" y2="-385.81" gradientTransform="matrix(1, 0, 0, -1, 0, -300)" gradientUnits="userSpaceOnUse"><stop offset="0" stop-color="#1f2229"/><stop offset="1" stop-color="#2a2b35"/></linearGradient><linearGradient id="linear-gradient-6" x1="28.58" y1="-611.4" x2="69.17" y2="-611.4" xlink:href="#linear-gradient-5"/><linearGradient id="linear-gradient-7" x1="120.39" y1="-338.25" x2="83.51" y2="-474.07" gradientTransform="matrix(1, 0, 0, -1, 0, -300)" gradientUnits="userSpaceOnUse"><stop offset="0" stop-color="#171a1a"/><stop offset="0.08" stop-color="#191c1d"/><stop offset="0.58" stop-color="#23262c"/><stop offset="1" stop-color="#272931"/></linearGradient><linearGradient id="linear-gradient-8" x1="127.83" y1="-470.44" x2="127.83" y2="-300" gradientTransform="matrix(1, 0, 0, -1, 0, -300)" gradientUnits="userSpaceOnUse"><stop offset="0" stop-color="gray"/><stop offset="0.21" stop-color="#b6b6b6"/><stop offset="0.4" stop-color="#e0e0e0"/><stop offset="0.5" stop-color="#f0f0f0"/><stop offset="0.54" stop-color="#e6e6e6"/><stop offset="0.85" stop-color="#9d9d9d"/><stop offset="1" stop-color="gray"/></linearGradient><linearGradient id="linear-gradient-9" x1="87.74" y1="-470.44" x2="87.74" y2="-300" gradientTransform="matrix(1, 0, 0, -1, 0, -300)" gradientUnits="userSpaceOnUse"><stop offset="0" stop-opacity="0"/><stop offset="0.17" stop-color="#101010" stop-opacity="0.17"/><stop offset="0.51" stop-color="#3a3a3a" stop-opacity="0.51"/><stop offset="0.98" stop-color="#7d7d7d" stop-opacity="0.98"/><stop offset="1" stop-color="gray"/></linearGradient><linearGradient id="linear-gradient-10" x1="69.18" y1="-470.88" x2="69.18" y2="-300.74" xlink:href="#linear-gradient-8"/><linearGradient id="linear-gradient-11" x1="69.18" y1="-746.43" x2="69.18" y2="-476.38" xlink:href="#linear-gradient-8"/><linearGradient id="linear-gradient-12" x1="128.12" y1="-759.2" x2="381.26" y2="-759.2" gradientTransform="matrix(1, 0, 0, -1, 0, -300)" gradientUnits="userSpaceOnUse"><stop offset="0" stop-color="#303135"/><stop offset="0.32" stop-color="#2b2e31"/><stop offset="1" stop-color="#252b2c"/></linearGradient></defs><title>playstation</title><g id="Layer_2" data-name="Layer 2"><g id="Layer_1-2" data-name="Layer 1"><polygon points="28.8 171.03 39.05 172.07 39.05 177.27 70.97 177.56 70.97 167.47 30.88 168.66 28.8 171.03"/><polygon class="cls-1" points="69.18 0.74 148.46 14.7 130.35 446.58 69.18 446.58 69.18 0.74"/><path class="cls-2" d="M353,196.71v9.95s-225.52-29.4-225.22-30.14,0-5.94,0-5.94Z"/><rect x="89.52" y="171.33" width="36.67" height="4.45"/><polygon class="cls-3" points="127.68 0 357.95 50.48 357.95 199.24 127.68 170.44 127.68 0"/><polygon class="cls-4" points="127.68 176.67 357.95 205.92 357.95 443.91 127.68 446.88 127.68 176.67"/><polygon class="cls-5" points="131.99 172.37 125.75 171.48 125.6 170.59 127.83 170.59 356.17 199.24 353.05 199.54 131.99 172.37"/><path d="M125.9,170.73h1.93l226.41,28.36-1.19.15L132,172.22l-6.09-.74v-.74m-.45-.3.15,1.34,6.38.89L353.2,199.83l4.9-.45L128,170.44Z"/><rect class="cls-6" x="29.1" y="0.74" width="40.09" height="170.14"/><rect class="cls-7" x="28.65" y="176.38" width="40.53" height="270.06"/><polygon class="cls-8" points="127.68 170.44 87.59 170.44 87.59 0 127.68 0 127.68 170.44"/><rect class="cls-5" x="87.59" y="176.38" width="39.94" height="269.76"/><rect class="cls-9" x="127.68" width="0.3" height="170.44"/><rect class="cls-10" x="87.59" width="0.3" height="170.44"/><rect class="cls-11" x="69.04" y="0.74" width="0.3" height="170.14"/><rect class="cls-12" x="69.04" y="176.38" width="0.3" height="270.06"/><rect x="127.68" y="176.38" width="0.3" height="269.91"/><path d="M67.11,174.59a.7.7,0,0,1-.74.74H38a.7.7,0,0,1-.74-.74v-2.08a.7.7,0,0,1,.74-.74H66.36a.7.7,0,0,1,.74.74Z"/><polygon points="127.68 176.38 357.95 205.77 353.05 204.29 131.84 175.19 127.53 174.89 127.68 176.38"/><rect class="cls-13" x="65.77" y="171.77" width="1.34" height="3.56"/><polygon class="cls-14" points="125.45 171.62 131.84 172.51 131.84 175.19 125.45 174.74 125.45 171.62"/><path class="cls-15" d="M109.42,53.6l1.19,1.19h0a.15.15,0,0,1,.15.15c.15,0,.15-.15.15-.3h0v-.3h.74v3.12h-.74V57h0c0-.45,0-.59-.89-1.19h0L108.08,54h-1.19c-.3,0-.45.15-.45.59h0v.74h-.74V51.07h.74v.74h0c0,.45.15.59.45.59h1.19l2.38-2.08h0c.45-.3.45-.3.45-1.34h.74v3.86h-.74v-.3h0c0-.3,0-.45-.15-.45s-.15.15-.3.15h0l-1.19,1h0a.46.46,0,0,0,.15.3Z"/><path class="cls-15" d="M111.79,27.32v.89h-2.08v-.89h0a1,1,0,0,0,.74-.59,3.34,3.34,0,0,0,.74-2.23c0-1-.3-1.93-.74-1.93-1.34,0-.3,5.94-2.67,5.94-1.34,0-1.93-1.19-1.93-3.56a8.67,8.67,0,0,1,.59-2.67c.15-.15-.15-.3-.45-.3h0v-1h2.23v.89h0a1.17,1.17,0,0,0-.89.74,3,3,0,0,0-.59,2.38c0,1.34.3,1.93.74,1.93s.59-.45.74-1.93h0l.15-1.34h0c.15-1.48.59-2.52,1.78-2.52s1.93,1.34,1.93,3.41a4.36,4.36,0,0,1-.59,2.38c-.15.3-.15.45.3.45Z"/><path class="cls-15" d="M108.23,45.73h2.38c.3,0,.45-.15.45-.59h0v-.59h.74V48h-.74v-.45h0c0-.45-.15-.59-.45-.59h-4.75V45.58L110,41.27h-3c-.3,0-.45.15-.45.59h0v.59h-.74V38.9h.74v.59h0c0,.45.15.59.45.59h3.56c.3,0,.45-.15.45-.59h0V38.9h.74V42l-3.56,3.71Z"/><path class="cls-15" d="M111.94,34.15c0-2.67-1.19-4.45-3.12-4.45s-3.12,1.63-3.12,4.31,1.19,4.45,3.27,4.45c1.78.15,3-1.63,3-4.31Zm-5.49,0a2.19,2.19,0,0,1,2.38-2.38,2.23,2.23,0,0,1,2.38,2.52,2.19,2.19,0,0,1-2.38,2.38,2.38,2.38,0,0,1-2.38-2.52Z"/><path class="cls-16" d="M339.54,160.34h.3a.52.52,0,0,1,.3.15h.15a.15.15,0,0,1,.15.15c.15,0,.15.15.3.15h0c.15,0,.3.15.45.15s.3.15.45.15h.3a.15.15,0,0,1,.15.15c.15,0,.15.15.3.15s.15.15.3.15l.15.15a.15.15,0,0,1,.15.15h.15a934688.41,934688.41,0,0,0,.45.45l.15.15.15.15h0l.3.3.15.15a3.24,3.24,0,0,1,.45.74h0c.15.3.15.45.3.74v.3h0v.59c0,.3.15.59.15.89h0v.45h0a11.17,11.17,0,0,1,0,2.23v.45h0v1.19c0,.15,0,.15-.15.3h0V171h0c0,.15,0,.15-.15.3v.15h0v.15c0,.15-.15.15-.15.3l-.15.15-.15.15h0c-.3.3-.74.15-1,.15s-.3-.15-.45-.3a.15.15,0,0,1-.15-.15h0v-.15h0v-7.13h0c0-.59-.3-1-.59-.89l-.15.15a1.88,1.88,0,0,0-.15.89v16h-.15v-.15c-.15,0-.15,0-.3-.15s-.15-.15-.3-.15a.15.15,0,0,1-.15-.15h-.15c-.15,0-.15-.15-.3-.15s-.15-.15-.3-.15h-.15a.15.15,0,0,1-.15-.15h-.15a.15.15,0,0,1-.15-.15.52.52,0,0,1-.3-.15.15.15,0,0,1-.15-.15C339.54,173,339.54,166.73,339.54,160.34Z"/><path class="cls-16" d="M338.94,171.92h0a14.41,14.41,0,0,1,.15,2.52c-.15,0-.15.15-.3.15h-.15a.15.15,0,0,0-.15.15h0c-.15.15-.3.15-.45.3h-.15a.15.15,0,0,0-.15.15h-.3a.15.15,0,0,0-.15.15h-.15l-.15.15h0c-.15,0-.3.15-.45.3l-.15.15-.15.15v.3h0v.15h0a.15.15,0,0,1,.15.15h1c.15,0,.3-.15.45-.15h.15a623125.46,623125.46,0,0,1,.3-.3,2110143588909.18,2110143588909.18,0,0,1,.3-.3c.15,0,.15-.15.3-.15h.15V178c-.15,0-.15,0-.3.15h-2.67A.15.15,0,0,1,336,178h-.15a.15.15,0,0,1-.15-.15h-.15a.52.52,0,0,1-.3-.15.15.15,0,0,1-.15-.15.15.15,0,0,1-.15-.15h0l-.15-.15-.15-.15c0-.15-.15-.15-.15-.3s-.15-.15-.15-.3a2.43,2.43,0,0,1,0-1c.15-.15.15-.3.3-.45l.15-.15h0c.15,0,.15-.15.3-.15l.15-.15a.15.15,0,0,0,.15-.15c.15-.15.15-.15.3-.15h.15l.15-.15h.15c.15-.15.3-.15.3-.3h.15l.15-.15h.15c.15-.15.3-.15.3-.3s.15-.15.3-.15h.15l.15-.15h.15c.15,0,.15-.15.3-.15l.15-.15c.15,0,.15-.15.3-.15a.15.15,0,0,0,.15-.15c0-.45,0-.45.15-.59Z"/><path class="cls-16" d="M344.73,173h1.63a.55.55,0,0,0,.45.15H347c.15,0,.3.15.45.15h0c.15,0,.3.15.45.3a.15.15,0,0,1,.15.15l.15.15h0V174h0l.3.3h0v.15h0v.3h0v1.19h0v.15c-.15.3-.45.45-.59.74l-.3.3h-.15a3.24,3.24,0,0,0-.74.45l-.15.15a.15.15,0,0,0-.15.15h-.15l-.15.15h-.15c-.15.15-.3.15-.3.3a2110143588945.5,2110143588945.5,0,0,1-.3.3h-.15l-.15.15h-.15l-.15.15h-.15c-.15.15-.45.3-.59.45a.15.15,0,0,0-.15.15c-.15,0-.15.15-.3.15s-.15.15-.3.15h-.15c-.15,0-.15.15-.3.15a.77.77,0,0,1-.59.3v-2.38a.15.15,0,0,1,.15-.15c.15,0,.15-.15.3-.15s.15-.15.3-.15l.15-.15h.15c.15,0,.15-.15.3-.15l.15-.15a.15.15,0,0,0,.15-.15H344l.15-.15c.15-.15.3-.15.45-.3a.15.15,0,0,0,.15-.15h0l.15-.15H345a.77.77,0,0,1,.59-.3h.3c.15,0,.15-.15.3-.15h0l.15-.15h0v-.15h0a.55.55,0,0,0-.15-.45.15.15,0,0,1-.15-.15h-1.19c-.15,0-.15.15-.3.15s-.15.15-.3.15a.15.15,0,0,0-.15.15H344l-.15.15c-.15,0-.15.15-.3.15h0a.15.15,0,0,0-.15.15l-.15.15-.15.15a.15.15,0,0,0-.15.15c-.15,0-.15.15-.3.15h0l-.15.15h-.15c-.15,0-.15.15-.3.15v-2.67c.15,0,.15,0,.3-.15h.15a.55.55,0,0,1,.45-.15h.15a.15.15,0,0,0,.15-.15h.45A1.61,1.61,0,0,1,344.73,173Z"/><path class="cls-17" d="M113.13,384.08a4.72,4.72,0,0,1-.3,2.08v.15h0l-.45.45h0l-.3.3a7385502561354.57,7385502561354.57,0,0,0-.3.3h0a.52.52,0,0,0-.3.15h-.45c-.3.15-.74,0-1,0h-.3c-.15,0-.3-.15-.45-.15h0c-.15,0-.3-.15-.45-.15s-.45-.3-.59-.45-.15-.15-.15-.3h0c-.15-.15-.15-.3-.3-.59h0a.55.55,0,0,0-.15-.45v-10.1h0c0-.15,0-.3-.15-.3v-.15h0c-.15-.15-.45-.3-.59-.45s-.15,0-.3-.15a3.2,3.2,0,0,0-1.19,0h-2.52v-2.23h4.31c.15,0,.3.15.45.15s.3.15.45.3h0a.15.15,0,0,0,.15.15h.15c.15.15.15.3.3.3v.15h0a.15.15,0,0,0,.15.15.46.46,0,0,0,.15.3c0,.3.15.45.15.74v9.95a1.79,1.79,0,0,0,.74.74.52.52,0,0,1,.3.15h1.34a.15.15,0,0,0,.15-.15h.15l.15-.15h0a.15.15,0,0,0,.15-.15h0c.15-.15.15-.15.15-.3h0V372.05h1C113.13,375.91,113.13,380.07,113.13,384.08Z"/><path class="cls-17" d="M113.13,398h0v7h-1v-6.53c0-.15-.15-.3-.15-.59a2,2,0,0,0-.59-.45c-.15,0-.15,0-.3-.15h-6.53a2.67,2.67,0,0,1-1.34-.89h0v-.15h0c0-.15-.15-.15-.15-.3v-.15c0-.15,0-.15-.15-.3h0a13.59,13.59,0,0,1-.15-2.52V386.9h1v6.68a.89.89,0,0,0,.15.59.32.32,0,0,0,.3.3.77.77,0,0,0,.59.3,2.53,2.53,0,0,0,1,.15h5.94c.15,0,.3.15.45.15s.15.15.3.3h0l.15.15a.77.77,0,0,1,.3.59h0c0,.15.15.3.15.45h0v.3h0v.3Q113.13,397.81,113.13,398Z"/><path class="cls-17" d="M113.13,418.07v.74c0,.15-.15.15-.15.3h0l-.15.15c-.15,0-.15,0-.3.15H105v2.23h-1.19v-2.23h-1.19v-2.23h1.19v-12a.89.89,0,0,1,.15-.59h0l.3-.3h.3c.15,0,.15.15.3.15l.3.3a1.13,1.13,0,0,1,.3.59c0,.15.15.15.15.3v.15h0c.15.15.15.3.3.45h0v.15a7385502561142.9,7385502561142.9,0,0,1,.3.3h0v.15h0a.52.52,0,0,0,.15.3l.15.15h0c0,.15.15.15.15.3v.15c0,.15.15.15.15.3s.15.3.3.45.15.15.15.3h0c.15.15.15.15.15.3h0c.15.15.15.3.3.45a.52.52,0,0,0,.15.3h0a.15.15,0,0,0,.15.15c0,.15.15.15.15.3s.15.3.3.45l.15.15h0v.15h0c0,.15.15.15.15.3h0c.15.15.15.3.3.45v.15h0l.15.15h0l.15.15h0l.15.15a.52.52,0,0,0,.15.3h0c.15.3.3.45.45.74s.15.3.3.45a1.13,1.13,0,0,1,.3.59h0c0,.15.15.15.15.3s.15.3.3.45h0l.15.15h0c0,.15.15.15.15.3l.15.15a.15.15,0,0,0,.15.15c0,.15.15.3.3.45h0c.15.15.15.15.15.3h0a.15.15,0,0,0,.15.15.46.46,0,0,1,.15.3l.15.15v.15h0v.15h0c0,.15.15.3.15.45C113.13,417.93,113.13,417.93,113.13,418.07Zm-2.38-1.78a3.24,3.24,0,0,0-.45-.74.15.15,0,0,0-.15-.15c0-.15-.15-.15-.15-.3s-.15-.15-.15-.3h0a.15.15,0,0,0-.15-.15c0-.15-.15-.15-.15-.3h0l-.15-.15c0-.15-.15-.15-.15-.3h0c0-.15-.15-.15-.15-.3l-.15-.15v-.15h0v-.15h0V413a.77.77,0,0,1-.3-.59h0c0-.15-.15-.15-.15-.3-.3-.3-.45-.74-.74-1l-.15-.15h0c-.15-.15-.15-.3-.3-.45a.15.15,0,0,0-.15-.15h0a.15.15,0,0,0-.15-.15h0a.15.15,0,0,0-.15-.15c-.15-.15-.15-.3-.3-.45s-.15-.3-.3-.45h0a.15.15,0,0,0-.15-.15h0a.52.52,0,0,0-.15-.3h0c-.15-.15-.3-.3-.3-.45v-.15h0V408h0a.15.15,0,0,0-.15-.15h0v-.15h0a.15.15,0,0,0-.15-.15h0a.15.15,0,0,0-.15-.15h-.15v10.1h6.38C111.05,416.74,110.9,416.59,110.75,416.29Z"/><polygon points="127.38 446.13 28.8 446.13 0 474.49 135.1 474.49 127.38 446.13"/><polygon class="cls-18" points="128.13 446.43 135.99 474.49 134.95 474.49 127.08 446.43 128.13 446.43"/><polygon class="cls-19" points="128.13 446.43 135.99 474.49 381.26 469.59 357.95 443.91 128.13 446.43"/><polygon points="357.95 443.91 127.68 446.43 127.68 446.13 357.95 443.91"/><path d="M141.78,467.36l226.41-4.31s2.52,1.93-.89,2.08c-3.12.15-189.59,4.16-217.2,4.6a56.07,56.07,0,0,1-5.64-.15C143.27,469.29,141.78,467.36,141.78,467.36Z"/></g></g></svg>